<?xml version="1.0" encoding="UTF-8"?>
<!DOCTYPE svg PUBLIC "-//W3C//DTD SVG 1.1//EN" "http://www.w3.org/Graphics/SVG/1.1/DTD/svg11.dtd">
<!-- Creator: CorelDRAW -->
<svg xmlns="http://www.w3.org/2000/svg" xml:space="preserve" width="2048px" height="2048px" style="shape-rendering:geometricPrecision; text-rendering:geometricPrecision; image-rendering:optimizeQuality; fill-rule:evenodd; clip-rule:evenodd"
viewBox="0 0 2048 2048"
 xmlns:xlink="http://www.w3.org/1999/xlink">
 <defs>
  <style type="text/css">
   <![CDATA[
    .fil1 {fill:none}
    .fil0 {fill:#424242}
   ]]>
  </style>
 </defs>
 <g id="Layer_x0020_1">
  <metadata id="CorelCorpID_0Corel-Layer"/>
  <g id="_341125312">
   <path id="_341127776" class="fil0" d="M1559.94 857.09c89.093,72.4442 181.944,60.2504 219.517,80.1414l-16.7091 28.2414c-10.9984,18.5917 -53.5642,36.078 -72.6662,42.9177 -53.9835,19.3311 -114.841,31.0087 -171.393,39.8811 -76.8213,12.052 -154.859,19.4835 -232.436,24.5303 -87.2446,5.67756 -174.828,8.21812 -262.253,8.21812 -87.4253,0 -175.009,-2.54055 -262.253,-8.21812 -77.5772,-5.04685 -155.615,-12.4784 -232.436,-24.5303 -56.5524,-8.87245 -117.41,-20.55 -171.393,-39.8811 -19.102,-6.83977 -62.0221,-24.1229 -72.6662,-42.9177l-16.3595 -28.8827c40.0737,-23.6103 140.501,-15.5339 219.168,-79.5001 100.616,-81.8138 253.246,-194.278 535.941,-194.278 282.695,0 449.965,124.368 535.941,194.278zm-314.075 -51.8823c-6.55867,-6.55985 -17.1969,-6.55985 -23.7555,0 -6.55867,6.55867 -6.55867,17.1969 0,23.7555l151.204 151.204c6.55867,6.55867 17.1969,6.55867 23.7555,0 6.55867,-6.55867 6.55867,-17.1969 0,-23.7555l-151.204 -151.204zm-419.977 23.7555c6.55867,-6.55867 6.55867,-17.1969 0,-23.7555 -6.55867,-6.55985 -17.1969,-6.55985 -23.7555,0l-151.204 151.204c-6.55867,6.55867 -6.55867,17.1969 0,23.7555 6.55867,6.55867 17.1969,6.55867 23.7555,0l151.204 -151.204zm214.911 -16.9441c0,-9.27757 -7.52245,-16.8 -16.8,-16.8 -9.27757,0 -16.8,7.52245 -16.8,16.8l0 187.585c0,9.27757 7.52245,16.8 16.8,16.8 9.27757,0 16.8,-7.52245 16.8,-16.8l0 -187.585z"/>
   <path id="_341126432" class="fil0" d="M355.307 1250.56c30.3981,75.7111 270.509,134.633 668.693,134.633 388.145,0 626.087,-55.9867 665.995,-128.939 29.5193,-53.9528 76.2107,-206.551 102.006,-274.247 -99.9225,176.822 -1436.08,176.822 -1536,0 33.3496,87.5198 65.0552,183.221 99.3072,268.553z"/>
  </g>
 </g>
 <rect class="fil1" width="2048" height="2048"/>
</svg>
